<svg xmlns="http://www.w3.org/2000/svg" width="900" height="270" viewBox="0 0 900 270">
<rect width="100%" height="100%" rx="8" fill="#0d1117"/>
<text x="18" y="28" fill="#f0f6fc" font-family="-apple-system,BlinkMacSystemFont,Segoe UI,Arial,sans-serif" font-size="15" font-weight="600">ren's contribution activity</text>
<text x="882" y="28" text-anchor="end" fill="#8b949e" font-family="-apple-system,BlinkMacSystemFont,Segoe UI,Arial,sans-serif" font-size="11">last 31 days</text>
<line x1="45" y1="48.0" x2="882" y2="48.0" stroke="#21262d" stroke-width="1"/>
<text x="36" y="52.0" text-anchor="end" fill="#6e7681" font-family="-apple-system,BlinkMacSystemFont,Segoe UI,Arial,sans-serif" font-size="10">205</text>
<line x1="45" y1="93.0" x2="882" y2="93.0" stroke="#21262d" stroke-width="1"/>
<text x="36" y="97.0" text-anchor="end" fill="#6e7681" font-family="-apple-system,BlinkMacSystemFont,Segoe UI,Arial,sans-serif" font-size="10">154</text>
<line x1="45" y1="138.0" x2="882" y2="138.0" stroke="#21262d" stroke-width="1"/>
<text x="36" y="142.0" text-anchor="end" fill="#6e7681" font-family="-apple-system,BlinkMacSystemFont,Segoe UI,Arial,sans-serif" font-size="10">102</text>
<line x1="45" y1="183.0" x2="882" y2="183.0" stroke="#21262d" stroke-width="1"/>
<text x="36" y="187.0" text-anchor="end" fill="#6e7681" font-family="-apple-system,BlinkMacSystemFont,Segoe UI,Arial,sans-serif" font-size="10">51</text>
<line x1="45" y1="228.0" x2="882" y2="228.0" stroke="#21262d" stroke-width="1"/>
<text x="36" y="232.0" text-anchor="end" fill="#6e7681" font-family="-apple-system,BlinkMacSystemFont,Segoe UI,Arial,sans-serif" font-size="10">0</text>
<polygon points="45,228 45.0,226.2 72.9,226.2 100.8,223.6 128.7,151.6 156.6,165.7 184.5,133.2 212.4,181.5 240.3,220.1 268.2,207.8 296.1,182.3 324.0,197.3 351.9,199.0 379.8,228.0 407.7,218.3 435.6,206.0 463.5,149.0 491.4,75.2 519.3,49.8 547.2,164.8 575.1,218.3 603.0,228.0 630.9,205.2 658.8,178.8 686.7,209.6 714.6,222.7 742.5,227.1 770.4,210.4 798.3,74.3 826.2,203.4 854.1,185.9 882.0,223.6 882,228" fill="#58a6ff" fill-opacity="0.10"/>
<polyline points="45.0,226.2 72.9,226.2 100.8,223.6 128.7,151.6 156.6,165.7 184.5,133.2 212.4,181.5 240.3,220.1 268.2,207.8 296.1,182.3 324.0,197.3 351.9,199.0 379.8,228.0 407.7,218.3 435.6,206.0 463.5,149.0 491.4,75.2 519.3,49.8 547.2,164.8 575.1,218.3 603.0,228.0 630.9,205.2 658.8,178.8 686.7,209.6 714.6,222.7 742.5,227.1 770.4,210.4 798.3,74.3 826.2,203.4 854.1,185.9 882.0,223.6" fill="none" stroke="#79c0ff" stroke-width="2.4" stroke-linejoin="round" stroke-linecap="round"/>
<circle cx="45.0" cy="226.2" r="2.4" fill="#c9d1d9" stroke="#58a6ff" stroke-width="1.2"/>
<circle cx="72.9" cy="226.2" r="2.4" fill="#c9d1d9" stroke="#58a6ff" stroke-width="1.2"/>
<circle cx="100.8" cy="223.6" r="2.4" fill="#c9d1d9" stroke="#58a6ff" stroke-width="1.2"/>
<circle cx="128.7" cy="151.6" r="2.4" fill="#c9d1d9" stroke="#58a6ff" stroke-width="1.2"/>
<circle cx="156.6" cy="165.7" r="2.4" fill="#c9d1d9" stroke="#58a6ff" stroke-width="1.2"/>
<circle cx="184.5" cy="133.2" r="2.4" fill="#c9d1d9" stroke="#58a6ff" stroke-width="1.2"/>
<circle cx="212.4" cy="181.5" r="2.4" fill="#c9d1d9" stroke="#58a6ff" stroke-width="1.2"/>
<circle cx="240.3" cy="220.1" r="2.4" fill="#c9d1d9" stroke="#58a6ff" stroke-width="1.2"/>
<circle cx="268.2" cy="207.8" r="2.4" fill="#c9d1d9" stroke="#58a6ff" stroke-width="1.2"/>
<circle cx="296.1" cy="182.3" r="2.4" fill="#c9d1d9" stroke="#58a6ff" stroke-width="1.2"/>
<circle cx="324.0" cy="197.3" r="2.4" fill="#c9d1d9" stroke="#58a6ff" stroke-width="1.2"/>
<circle cx="351.9" cy="199.0" r="2.4" fill="#c9d1d9" stroke="#58a6ff" stroke-width="1.2"/>
<circle cx="379.8" cy="228.0" r="2.4" fill="#c9d1d9" stroke="#58a6ff" stroke-width="1.2"/>
<circle cx="407.7" cy="218.3" r="2.4" fill="#c9d1d9" stroke="#58a6ff" stroke-width="1.2"/>
<circle cx="435.6" cy="206.0" r="2.4" fill="#c9d1d9" stroke="#58a6ff" stroke-width="1.2"/>
<circle cx="463.5" cy="149.0" r="2.4" fill="#c9d1d9" stroke="#58a6ff" stroke-width="1.2"/>
<circle cx="491.4" cy="75.2" r="2.4" fill="#c9d1d9" stroke="#58a6ff" stroke-width="1.2"/>
<circle cx="519.3" cy="49.8" r="2.4" fill="#c9d1d9" stroke="#58a6ff" stroke-width="1.2"/>
<circle cx="547.2" cy="164.8" r="2.4" fill="#c9d1d9" stroke="#58a6ff" stroke-width="1.2"/>
<circle cx="575.1" cy="218.3" r="2.4" fill="#c9d1d9" stroke="#58a6ff" stroke-width="1.2"/>
<circle cx="603.0" cy="228.0" r="2.4" fill="#c9d1d9" stroke="#58a6ff" stroke-width="1.2"/>
<circle cx="630.9" cy="205.2" r="2.4" fill="#c9d1d9" stroke="#58a6ff" stroke-width="1.2"/>
<circle cx="658.8" cy="178.8" r="2.4" fill="#c9d1d9" stroke="#58a6ff" stroke-width="1.2"/>
<circle cx="686.7" cy="209.6" r="2.4" fill="#c9d1d9" stroke="#58a6ff" stroke-width="1.2"/>
<circle cx="714.6" cy="222.7" r="2.4" fill="#c9d1d9" stroke="#58a6ff" stroke-width="1.2"/>
<circle cx="742.5" cy="227.1" r="2.4" fill="#c9d1d9" stroke="#58a6ff" stroke-width="1.2"/>
<circle cx="770.4" cy="210.4" r="2.4" fill="#c9d1d9" stroke="#58a6ff" stroke-width="1.2"/>
<circle cx="798.3" cy="74.3" r="2.4" fill="#c9d1d9" stroke="#58a6ff" stroke-width="1.2"/>
<circle cx="826.2" cy="203.4" r="2.4" fill="#c9d1d9" stroke="#58a6ff" stroke-width="1.2"/>
<circle cx="854.1" cy="185.9" r="2.4" fill="#c9d1d9" stroke="#58a6ff" stroke-width="1.2"/>
<circle cx="882.0" cy="223.6" r="2.4" fill="#c9d1d9" stroke="#58a6ff" stroke-width="1.2"/>
<text x="45.0" y="255" text-anchor="middle" fill="#6e7681" font-family="-apple-system,BlinkMacSystemFont,Segoe UI,Arial,sans-serif" font-size="10">Sep 10</text>
<text x="184.5" y="255" text-anchor="middle" fill="#6e7681" font-family="-apple-system,BlinkMacSystemFont,Segoe UI,Arial,sans-serif" font-size="10">Sep 15</text>
<text x="324.0" y="255" text-anchor="middle" fill="#6e7681" font-family="-apple-system,BlinkMacSystemFont,Segoe UI,Arial,sans-serif" font-size="10">Sep 20</text>
<text x="463.5" y="255" text-anchor="middle" fill="#6e7681" font-family="-apple-system,BlinkMacSystemFont,Segoe UI,Arial,sans-serif" font-size="10">Sep 25</text>
<text x="603.0" y="255" text-anchor="middle" fill="#6e7681" font-family="-apple-system,BlinkMacSystemFont,Segoe UI,Arial,sans-serif" font-size="10">Sep 30</text>
<text x="742.5" y="255" text-anchor="middle" fill="#6e7681" font-family="-apple-system,BlinkMacSystemFont,Segoe UI,Arial,sans-serif" font-size="10">Oct 05</text>
<text x="882.0" y="255" text-anchor="middle" fill="#6e7681" font-family="-apple-system,BlinkMacSystemFont,Segoe UI,Arial,sans-serif" font-size="10">Oct 10</text>
</svg>
